<?xml version="1.0" encoding="UTF-8" standalone="no"?>
<!DOCTYPE svg PUBLIC "-//W3C//DTD SVG 1.1//EN"
 "http://www.w3.org/Graphics/SVG/1.1/DTD/svg11.dtd">
<!-- Generated by graphviz version 2.40.1 (20161225.0304)
 -->
<!-- Title: jobly Pages: 1 -->
<svg width="692pt" height="428pt"
 viewBox="0.00 0.00 692.00 428.00" xmlns="http://www.w3.org/2000/svg" xmlns:xlink="http://www.w3.org/1999/xlink">
<g id="graph0" class="graph" transform="scale(1 1) rotate(0) translate(4 424)">
<title>jobly</title>
<polygon fill="#ffffff" stroke="transparent" points="-4,4 -4,-424 688,-424 688,4 -4,4"/>
<!-- App -->
<g id="node1" class="node">
<title>App</title>
<polygon fill="none" stroke="#000000" points="108,-231 0,-231 0,-195 108,-195 108,-231"/>
<text text-anchor="middle" x="54" y="-209.9" font-family="Arial" font-size="12.00" fill="#000000">App</text>
</g>
<!-- Navigation -->
<g id="node2" class="node">
<title>Navigation</title>
<polygon fill="none" stroke="#000000" points="108,-177 0,-177 0,-141 108,-141 108,-177"/>
<text text-anchor="middle" x="54" y="-155.9" font-family="Arial" font-size="12.00" fill="#000000">Navigation</text>
</g>
<!-- App&#45;&gt;Navigation -->
<g id="edge1" class="edge">
<title>App&#45;&gt;Navigation</title>
<path fill="none" stroke="#7f7f7f" d="M54,-194.7902C54,-191.297 54,-187.8039 54,-184.3107"/>
<polygon fill="#7f7f7f" stroke="#7f7f7f" points="56.4501,-184.1406 54,-177.1406 51.5501,-184.1407 56.4501,-184.1406"/>
</g>
<!-- Routes -->
<g id="node3" class="node">
<title>Routes</title>
<polygon fill="none" stroke="#000000" points="252,-231 144,-231 144,-195 252,-195 252,-231"/>
<text text-anchor="middle" x="198" y="-209.9" font-family="Arial" font-size="12.00" fill="#000000">Routes</text>
</g>
<!-- App&#45;&gt;Routes -->
<g id="edge2" class="edge">
<title>App&#45;&gt;Routes</title>
<path fill="none" stroke="#7f7f7f" d="M108.03,-213C117.3149,-213 127.0257,-213 136.4895,-213"/>
<polygon fill="#7f7f7f" stroke="#7f7f7f" points="136.6672,-215.4501 143.6672,-213 136.6672,-210.5501 136.6672,-215.4501"/>
</g>
<!-- Homepage -->
<g id="node4" class="node">
<title>Homepage</title>
<polygon fill="none" stroke="#000000" points="396,-413 288,-413 288,-377 396,-377 396,-413"/>
<text text-anchor="middle" x="342" y="-391.9" font-family="Arial" font-size="12.00" fill="#000000">Homepage</text>
</g>
<!-- Routes&#45;&gt;Homepage -->
<g id="edge3" class="edge">
<title>Routes&#45;&gt;Homepage</title>
<path fill="none" stroke="#7f7f7f" d="M204.4593,-231.019C216.5084,-262.4381 245.1367,-327.732 288,-368 289.757,-369.6506 291.6342,-371.2226 293.5958,-372.7168"/>
<polygon fill="#7f7f7f" stroke="#7f7f7f" points="292.5535,-374.9765 299.698,-376.9664 295.3538,-370.9555 292.5535,-374.9765"/>
</g>
<!-- CompanyList -->
<g id="node5" class="node">
<title>CompanyList</title>
<polygon fill="none" stroke="#000000" points="396,-359 288,-359 288,-323 396,-323 396,-359"/>
<text text-anchor="middle" x="342" y="-337.9" font-family="Arial" font-size="12.00" fill="#000000">CompanyList</text>
</g>
<!-- Routes&#45;&gt;CompanyList -->
<g id="edge4" class="edge">
<title>Routes&#45;&gt;CompanyList</title>
<path fill="none" stroke="#7f7f7f" d="M213.0837,-231.2532C230.0797,-251.1923 259.1191,-283.4281 288,-307 293.0423,-311.1155 298.6143,-315.1326 304.2073,-318.8799"/>
<polygon fill="#7f7f7f" stroke="#7f7f7f" points="303.0597,-321.0566 310.2604,-322.8321 305.7385,-316.9537 303.0597,-321.0566"/>
</g>
<!-- CompanyDetail -->
<g id="node6" class="node">
<title>CompanyDetail</title>
<polygon fill="none" stroke="#000000" points="396,-298 288,-298 288,-262 396,-262 396,-298"/>
<text text-anchor="middle" x="342" y="-276.9" font-family="Arial" font-size="12.00" fill="#000000">CompanyDetail</text>
</g>
<!-- Routes&#45;&gt;CompanyDetail -->
<g id="edge5" class="edge">
<title>Routes&#45;&gt;CompanyDetail</title>
<path fill="none" stroke="#7f7f7f" d="M236.9685,-231.1312C255.4524,-239.7313 277.6446,-250.0568 296.8581,-258.9965"/>
<polygon fill="#7f7f7f" stroke="#7f7f7f" points="295.8699,-261.2388 303.2501,-261.9705 297.937,-256.7962 295.8699,-261.2388"/>
</g>
<!-- JobList -->
<g id="node7" class="node">
<title>JobList</title>
<polygon fill="none" stroke="#000000" points="396,-231 288,-231 288,-195 396,-195 396,-231"/>
<text text-anchor="middle" x="342" y="-209.9" font-family="Arial" font-size="12.00" fill="#000000">JobList</text>
</g>
<!-- Routes&#45;&gt;JobList -->
<g id="edge6" class="edge">
<title>Routes&#45;&gt;JobList</title>
<path fill="none" stroke="#7f7f7f" d="M252.03,-213C261.3149,-213 271.0257,-213 280.4895,-213"/>
<polygon fill="#7f7f7f" stroke="#7f7f7f" points="280.6672,-215.4501 287.6672,-213 280.6672,-210.5501 280.6672,-215.4501"/>
</g>
<!-- LoginForm -->
<g id="node8" class="node">
<title>LoginForm</title>
<polygon fill="none" stroke="#000000" points="396,-177 288,-177 288,-141 396,-141 396,-177"/>
<text text-anchor="middle" x="342" y="-155.9" font-family="Arial" font-size="12.00" fill="#000000">LoginForm</text>
</g>
<!-- Routes&#45;&gt;LoginForm -->
<g id="edge7" class="edge">
<title>Routes&#45;&gt;LoginForm</title>
<path fill="none" stroke="#7f7f7f" d="M246.3505,-194.8686C259.292,-190.0155 273.3802,-184.7324 286.6671,-179.7498"/>
<polygon fill="#7f7f7f" stroke="#7f7f7f" points="287.838,-181.9274 293.532,-177.1755 286.1174,-177.3394 287.838,-181.9274"/>
</g>
<!-- SignupForm -->
<g id="node9" class="node">
<title>SignupForm</title>
<polygon fill="none" stroke="#000000" points="396,-122 288,-122 288,-86 396,-86 396,-122"/>
<text text-anchor="middle" x="342" y="-100.9" font-family="Arial" font-size="12.00" fill="#000000">SignupForm</text>
</g>
<!-- Routes&#45;&gt;SignupForm -->
<g id="edge8" class="edge">
<title>Routes&#45;&gt;SignupForm</title>
<path fill="none" stroke="#7f7f7f" d="M215.4641,-194.7896C232.81,-177.3299 260.6927,-150.9066 288,-132 291.1474,-129.8209 294.4862,-127.6974 297.899,-125.6576"/>
<polygon fill="#7f7f7f" stroke="#7f7f7f" points="299.2576,-127.7024 304.0969,-122.0824 296.8092,-123.458 299.2576,-127.7024"/>
</g>
<!-- ProfileForm -->
<g id="node10" class="node">
<title>ProfileForm</title>
<polygon fill="none" stroke="#000000" points="396,-66 288,-66 288,-30 396,-30 396,-66"/>
<text text-anchor="middle" x="342" y="-44.9" font-family="Arial" font-size="12.00" fill="#000000">ProfileForm</text>
</g>
<!-- Routes&#45;&gt;ProfileForm -->
<g id="edge9" class="edge">
<title>Routes&#45;&gt;ProfileForm</title>
<path fill="none" stroke="#7f7f7f" d="M206.4432,-194.6488C220.1789,-166.4105 249.721,-111.9182 288,-77 290.614,-74.6155 293.46,-72.3611 296.4336,-70.2434"/>
<polygon fill="#7f7f7f" stroke="#7f7f7f" points="298.2089,-72.0053 302.6829,-66.0904 295.4968,-67.9243 298.2089,-72.0053"/>
</g>
<!-- SearchForm1 -->
<g id="node11" class="node">
<title>SearchForm1</title>
<polygon fill="none" stroke="#6495ed" points="540,-420 432,-420 432,-384 540,-384 540,-420"/>
<text text-anchor="start" x="452.5" y="-398.9" font-family="Arial" font-size="12.00" fill="#000000">SearchForm</text>
</g>
<!-- CompanyList&#45;&gt;SearchForm1 -->
<g id="edge10" class="edge">
<title>CompanyList&#45;&gt;SearchForm1</title>
<path fill="none" stroke="#7f7f7f" d="M384.8149,-359.1369C401.0629,-366.0197 419.6979,-373.9137 436.5118,-381.0362"/>
<polygon fill="#7f7f7f" stroke="#7f7f7f" points="435.7002,-383.3532 443.1014,-383.8277 437.6116,-378.8413 435.7002,-383.3532"/>
</g>
<!-- CompanyCard -->
<g id="node12" class="node">
<title>CompanyCard</title>
<polygon fill="none" stroke="#000000" points="540,-366 432,-366 432,-330 540,-330 540,-366"/>
<text text-anchor="middle" x="486" y="-344.9" font-family="Arial" font-size="12.00" fill="#000000">CompanyCard</text>
</g>
<!-- CompanyList&#45;&gt;CompanyCard -->
<g id="edge11" class="edge">
<title>CompanyList&#45;&gt;CompanyCard</title>
<path fill="none" stroke="#7f7f7f" d="M396.03,-343.6265C405.3149,-344.0778 415.0257,-344.5499 424.4895,-345.0099"/>
<polygon fill="#7f7f7f" stroke="#7f7f7f" points="424.5565,-347.466 431.6672,-345.3588 424.7944,-342.5717 424.5565,-347.466"/>
</g>
<!-- JobCardList1 -->
<g id="node13" class="node">
<title>JobCardList1</title>
<polygon fill="none" stroke="#ff0000" points="540,-312 432,-312 432,-276 540,-276 540,-312"/>
<text text-anchor="start" x="453.5" y="-290.9" font-family="Arial" font-size="12.00" fill="#000000">JobCardList</text>
</g>
<!-- CompanyDetail&#45;&gt;JobCardList1 -->
<g id="edge12" class="edge">
<title>CompanyDetail&#45;&gt;JobCardList1</title>
<path fill="none" stroke="#7f7f7f" d="M396.03,-285.2529C405.3149,-286.1556 415.0257,-287.0997 424.4895,-288.0198"/>
<polygon fill="#7f7f7f" stroke="#7f7f7f" points="424.4629,-290.4787 431.6672,-288.7176 424.9372,-285.6017 424.4629,-290.4787"/>
</g>
<!-- SearchForm2 -->
<g id="node15" class="node">
<title>SearchForm2</title>
<polygon fill="none" stroke="#6495ed" points="540,-258 432,-258 432,-222 540,-222 540,-258"/>
<text text-anchor="start" x="452.5" y="-236.9" font-family="Arial" font-size="12.00" fill="#000000">SearchForm</text>
</g>
<!-- JobList&#45;&gt;SearchForm2 -->
<g id="edge14" class="edge">
<title>JobList&#45;&gt;SearchForm2</title>
<path fill="none" stroke="#7f7f7f" d="M396.03,-223.1306C405.4059,-224.8886 415.2162,-226.728 424.7678,-228.519"/>
<polygon fill="#7f7f7f" stroke="#7f7f7f" points="424.3356,-230.9305 431.6672,-229.8126 425.2386,-226.1145 424.3356,-230.9305"/>
</g>
<!-- JobCardList2 -->
<g id="node16" class="node">
<title>JobCardList2</title>
<polygon fill="none" stroke="#ff0000" points="540,-204 432,-204 432,-168 540,-168 540,-204"/>
<text text-anchor="start" x="453.5" y="-182.9" font-family="Arial" font-size="12.00" fill="#000000">JobCardList</text>
</g>
<!-- JobList&#45;&gt;JobCardList2 -->
<g id="edge15" class="edge">
<title>JobList&#45;&gt;JobCardList2</title>
<path fill="none" stroke="#7f7f7f" d="M396.03,-202.8694C405.4059,-201.1114 415.2162,-199.272 424.7678,-197.481"/>
<polygon fill="#7f7f7f" stroke="#7f7f7f" points="425.2386,-199.8855 431.6672,-196.1874 424.3356,-195.0695 425.2386,-199.8855"/>
</g>
<!-- Alert1 -->
<g id="node18" class="node">
<title>Alert1</title>
<polygon fill="none" stroke="#cdad00" points="540,-150 432,-150 432,-112 540,-112 540,-150"/>
<text text-anchor="start" x="473.5" y="-137.4" font-family="Arial" font-size="12.00" fill="#000000">Alert</text>
<text text-anchor="start" x="445" y="-118.8" font-family="Arial" font-style="italic" font-size="9.00" fill="#000000">(for validation msgs)</text>
</g>
<!-- LoginForm&#45;&gt;Alert1 -->
<g id="edge17" class="edge">
<title>LoginForm&#45;&gt;Alert1</title>
<path fill="none" stroke="#7f7f7f" d="M396.03,-148.4942C405.4059,-146.6711 415.2162,-144.7635 424.7678,-142.9063"/>
<polygon fill="#7f7f7f" stroke="#7f7f7f" points="425.2635,-145.3058 431.6672,-141.5647 424.3282,-140.4959 425.2635,-145.3058"/>
</g>
<!-- Alert2 -->
<g id="node19" class="node">
<title>Alert2</title>
<polygon fill="none" stroke="#cdad00" points="540,-94 432,-94 432,-56 540,-56 540,-94"/>
<text text-anchor="start" x="473.5" y="-81.4" font-family="Arial" font-size="12.00" fill="#000000">Alert</text>
<text text-anchor="start" x="445" y="-62.8" font-family="Arial" font-style="italic" font-size="9.00" fill="#000000">(for validation msgs)</text>
</g>
<!-- SignupForm&#45;&gt;Alert2 -->
<g id="edge18" class="edge">
<title>SignupForm&#45;&gt;Alert2</title>
<path fill="none" stroke="#7f7f7f" d="M396.03,-93.119C405.4059,-91.2308 415.2162,-89.2551 424.7678,-87.3315"/>
<polygon fill="#7f7f7f" stroke="#7f7f7f" points="425.2887,-89.7259 431.6672,-85.942 424.3212,-84.9223 425.2887,-89.7259"/>
</g>
<!-- Alert3 -->
<g id="node20" class="node">
<title>Alert3</title>
<polygon fill="none" stroke="#cdad00" points="540,-38 432,-38 432,0 540,0 540,-38"/>
<text text-anchor="start" x="473.5" y="-25.4" font-family="Arial" font-size="12.00" fill="#000000">Alert</text>
<text text-anchor="start" x="445" y="-6.8" font-family="Arial" font-style="italic" font-size="9.00" fill="#000000">(for validation msgs)</text>
</g>
<!-- ProfileForm&#45;&gt;Alert3 -->
<g id="edge19" class="edge">
<title>ProfileForm&#45;&gt;Alert3</title>
<path fill="none" stroke="#7f7f7f" d="M396.03,-37.119C405.4059,-35.2308 415.2162,-33.2551 424.7678,-31.3315"/>
<polygon fill="#7f7f7f" stroke="#7f7f7f" points="425.2887,-33.7259 431.6672,-29.942 424.3212,-28.9223 425.2887,-33.7259"/>
</g>
<!-- JobCard1 -->
<g id="node14" class="node">
<title>JobCard1</title>
<polygon fill="none" stroke="#228b22" points="684,-317.5 576,-317.5 576,-270.5 684,-270.5 684,-317.5"/>
<text text-anchor="start" x="607" y="-303.9" font-family="Arial" font-size="12.00" fill="#000000">JobCard</text>
<text text-anchor="start" x="607" y="-290.9" font-family="Arial" font-size="12.00" fill="#000000">JobCard</text>
<text text-anchor="start" x="624.5" y="-277.9" font-family="Arial" font-size="12.00" fill="#000000">...</text>
</g>
<!-- JobCardList1&#45;&gt;JobCard1 -->
<g id="edge13" class="edge">
<title>JobCardList1&#45;&gt;JobCard1</title>
<path fill="none" stroke="#7f7f7f" d="M540.03,-294C549.3149,-294 559.0257,-294 568.4895,-294"/>
<polygon fill="#7f7f7f" stroke="#7f7f7f" points="568.6672,-296.4501 575.6672,-294 568.6672,-291.5501 568.6672,-296.4501"/>
</g>
<!-- JobCard2 -->
<g id="node17" class="node">
<title>JobCard2</title>
<polygon fill="none" stroke="#228b22" points="684,-209.5 576,-209.5 576,-162.5 684,-162.5 684,-209.5"/>
<text text-anchor="start" x="607" y="-195.9" font-family="Arial" font-size="12.00" fill="#000000">JobCard</text>
<text text-anchor="start" x="607" y="-182.9" font-family="Arial" font-size="12.00" fill="#000000">JobCard</text>
<text text-anchor="start" x="624.5" y="-169.9" font-family="Arial" font-size="12.00" fill="#000000">...</text>
</g>
<!-- JobCardList2&#45;&gt;JobCard2 -->
<g id="edge16" class="edge">
<title>JobCardList2&#45;&gt;JobCard2</title>
<path fill="none" stroke="#7f7f7f" d="M540.03,-186C549.3149,-186 559.0257,-186 568.4895,-186"/>
<polygon fill="#7f7f7f" stroke="#7f7f7f" points="568.6672,-188.4501 575.6672,-186 568.6672,-183.5501 568.6672,-188.4501"/>
</g>
</g>
</svg>
